<svg xmlns="http://www.w3.org/2000/svg" xmlns:xlink="http://www.w3.org/1999/xlink" width="34" height="39" viewBox="0 0 34 39">
  <defs>
    <style>
      .cls-1 {
        fill-rule: evenodd;
        filter: url(#filter);
      }
    </style>
    <filter id="filter" x="403" y="3449" width="34" height="39" filterUnits="userSpaceOnUse">
      <feFlood result="flood" flood-color="#37eb69"/>
      <feComposite result="composite" operator="in" in2="SourceGraphic"/>
      <feBlend result="blend" in2="SourceGraphic"/>
    </filter>
  </defs>
  <path id="Forma_1" data-name="Forma 1" class="cls-1" d="M421.773,3471.16c-0.592.02-1.184,0.03-1.772,0.03s-1.185-.01-1.778-0.03a40.664,40.664,0,0,1-11.834-1.82,14.174,14.174,0,0,1-3.389-1.58v6.3c1.935,1.99,8.428,3.83,17,3.83s15.065-1.84,17-3.83v-6.3a13.923,13.923,0,0,1-3.417,1.59A40.608,40.608,0,0,1,421.773,3471.16ZM403,3458.98v6.29c1.794,1.85,7.5,3.56,15.154,3.8a1.9,1.9,0,0,0,.238.01c0.221,0,.442.01,0.668,0.01,0.31,0.01.624,0.01,0.94,0.01s0.63,0,.94-0.01c0.225,0,.446,0,0.668-0.01a1.871,1.871,0,0,0,.237-0.01c7.652-.24,13.361-1.95,15.155-3.79v-6.3c-3.31,2.24-10.306,3.42-17,3.42S406.31,3461.22,403,3458.98Zm33.908-4.26c-0.763-2.88-6.63-5.72-16.908-5.72-10.252,0-16.113,2.83-16.9,5.7a0.658,0.658,0,0,0-.1.33v1.54c1.929,1.99,8.376,3.82,17,3.82s15.071-1.83,17-3.82v-1.54A0.617,0.617,0,0,0,436.908,3454.72ZM403,3476.47v5.5a0.61,0.61,0,0,0,.079.3c0.8,3.28,7.988,5.73,16.921,5.73,8.912,0,16.085-2.44,16.915-5.71a0.621,0.621,0,0,0,.085-0.32v-5.49c-2.812,1.95-8.605,3.48-17,3.48S405.811,3478.42,403,3476.47Z" transform="translate(-403 -3449)"/>
</svg>
