<svg xmlns="http://www.w3.org/2000/svg" width="41.969" height="43" viewBox="0 0 41.969 43">
  <defs>
    <style>
      .cls-1 {
        fill: #fcaa0c;
        fill-rule: evenodd;
      }
    </style>
  </defs>
  <path id="Forma_1" data-name="Forma 1" class="cls-1" d="M864.721,3456.54a21.67,21.67,0,0,0-17.616-9.54c-7.961.06-15.288,5.65-18.306,12.73a21.891,21.891,0,0,0,1.789,20.7c3.451,5.28,11.065,11.28,17.847,9.12,8.276-.48,15.819-4.23,19.056-12.13C870.315,3470.53,868.914,3462.56,864.721,3456.54Zm-35.68,7.38c-0.092.22-.179,0.45-0.26,0.68,0.1-.48.217-0.95,0.348-1.41C829.09,3463.43,829.061,3463.67,829.041,3463.92Zm30.871-10.5c0.376,0.33.741,0.66,1.1,1.01-0.374-.31-0.755-0.62-1.143-0.91A0.464,0.464,0,0,0,859.912,3453.42Zm-21.947,26.74c-3.269-2.64-4.535-6.83-4.663-10.86a14.24,14.24,0,0,1,.993-5.66c0.247,2,1.392,4.14,1.965,5.89,1.315,4.02,2.293,8.22,3.971,12.13A15.387,15.387,0,0,1,837.965,3480.16Zm-1.818-13.79a0.026,0.026,0,0,1,.024.01c0.134,0.3.266,0.61,0.388,0.92a0.487,0.487,0,0,0,.063.11c0.038,0.21.075,0.41,0.115,0.61C836.545,3467.47,836.346,3466.92,836.147,3466.37Zm13.338,17.29a0.5,0.5,0,0,0-.384-0.22,0.036,0.036,0,0,1,0-.01c-0.8.04-1.543,0.26-2.352,0.26a10.143,10.143,0,0,1-3.026-.6,0.177,0.177,0,0,1-.067-0.02c1.771-2.82,1.989-6.46,3.439-9.44,0.4-.82.786-1.64,1.164-2.47,0.182,0.52.35,1.04,0.49,1.58,0.626,2.38,1.181,4.78,1.918,7.13a24.269,24.269,0,0,0,1.035,3.03C850.978,3483.18,850.237,3483.44,849.485,3483.66Zm3.629-9.84q-0.187-.735-0.366-1.47c-0.016-.13-0.032-0.25-0.048-0.38,0.167,0.61.327,1.23,0.485,1.85h-0.071Zm0.435-2.84a41.874,41.874,0,0,0-1.856-5.67,20.805,20.805,0,0,0-1.007-3.22c-0.006-.01-0.016-0.03-0.023-0.04a4.223,4.223,0,0,0,1.62-.37,0.624,0.624,0,0,0,0-1.08c-1.071-.53-2.483-0.25-3.652-0.23-1.685.03-3.373,0.06-5.055-.03-1.053-.07-1.038,1.52,0,1.6,0.484,0.04.969,0.06,1.454,0.07-0.19,1.29.886,3.37,1.231,4.24,0.419,1.06.884,2.1,1.319,3.15-0.557,1.34-1.214,2.65-1.847,3.95a30.848,30.848,0,0,0-1.693,4.66c-0.709-2.48-1.876-4.96-2.708-7.38-0.958-2.77-1.844-5.57-2.946-8.3a6.012,6.012,0,0,0,2.3-.26,0.584,0.584,0,0,0,0-1.12,11.968,11.968,0,0,0-3.969-.2c-0.3.01-.607,0.01-0.91,0.01a16.61,16.61,0,0,1,11.78-7.18,13.413,13.413,0,0,1,10.669,3.38c-1.354.15-2.123,1.38-2.036,3.15a12.23,12.23,0,0,0,.99,3.9,14.673,14.673,0,0,1,1.114,7.65,0.253,0.253,0,0,0,.063.2c-0.378,1.38-.809,2.75-1.29,4.1-0.419,1.18-.982,2.28-1.293,3.44C855,3476.61,854.32,3473.78,853.549,3470.98Zm2.584,9.57c-0.026-.08-0.048-0.17-0.073-0.25a6.263,6.263,0,0,0,2.075-3.18,45.217,45.217,0,0,0,2.059-6.77,50.831,50.831,0,0,0,1.119-7.02c0.052-.58.147-1.33,0.192-2.11a15.3,15.3,0,0,1,1.61,6.01C863.451,3473.02,860.488,3477.56,856.133,3480.55Z" transform="translate(-827 -3447)"/>
</svg>
