<svg xmlns="http://www.w3.org/2000/svg" width="40" height="24" viewBox="0 0 40 24">
  <defs>
    <style>
      .cls-1 {
        fill: #10ccc5;
        fill-rule: evenodd;
      }
    </style>
  </defs>
  <path id="icon" class="cls-1" d="M1279.13,3753.28a11.868,11.868,0,0,0-7.48,2.62,12.485,12.485,0,0,0-8.41-3.22,12.015,12.015,0,1,0,0,24.02,12.533,12.533,0,0,0,8.41-3.22,11.919,11.919,0,0,0,7.48,2.61A11.41,11.41,0,1,0,1279.13,3753.28Zm0,19.84a8.8,8.8,0,0,1-5.51-1.92,11.66,11.66,0,0,0,0-13.03,8.8,8.8,0,0,1,5.51-1.92A8.438,8.438,0,1,1,1279.13,3773.12Z" transform="translate(-1250.88 -3752.69)"/>
</svg>
